REM MD5 1a3119e4ff2aa6110835f71691520a46
FILE "Official U.S. PlayStation Magazine Demo Disc 35 (USA).bin" BINARY
  TRACK 01 MODE2/2352
    INDEX 01 00:00:00
  TRACK 02 AUDIO
    INDEX 00 20:41:42
    INDEX 01 20:43:42
  TRACK 03 AUDIO
    INDEX 00 22:28:72
    INDEX 01 22:30:72
REM LEADOUT 22:36:68
